<svg width="368" height="63" viewBox="0 0 368 63" fill="none" xmlns="http://www.w3.org/2000/svg">
<circle cx="31.0112" cy="31.0112" r="31.0112" fill="white"/>
<path d="M45.3241 46.5171C45.3241 45.4207 44.9538 44.335 44.2346 43.3221C43.5153 42.3091 42.461 41.3887 41.1319 40.6134C39.8028 39.8381 38.225 39.2231 36.4885 38.8035C34.752 38.3839 32.8908 38.168 31.0112 38.168C29.1316 38.168 27.2704 38.3839 25.5339 38.8035C23.7974 39.2231 22.2195 39.8381 20.8904 40.6134C19.5614 41.3887 18.5071 42.3091 17.7878 43.3221C17.0685 44.335 16.6983 45.4207 16.6983 46.5171L31.0112 46.5171H45.3241Z" fill="#00A8D1"/>
<circle cx="15.5056" cy="27.4324" r="5.9637" fill="#00A8D1"/>
<circle cx="29.8185" cy="17.8914" r="5.9637" fill="#00A8D1"/>
<circle cx="44.1314" cy="27.4324" r="5.9637" fill="#00A8D1"/>
<path d="M75.9188 48V11.9142H89.7329C92.3407 11.9142 94.5079 12.3253 96.2347 13.1476C97.9732 13.9581 99.2712 15.0682 100.129 16.4778C100.998 17.8874 101.433 19.4849 101.433 21.2704C101.433 22.7388 101.151 23.9957 100.587 25.0411C100.023 26.0748 99.2653 26.9147 98.3138 27.5608C97.3624 28.2068 96.2993 28.6708 95.1246 28.9528V29.3052C96.405 29.3756 97.6325 29.7692 98.8072 30.4857C99.9936 31.1905 100.963 32.189 101.715 33.4811C102.466 34.7732 102.842 36.3355 102.842 38.168C102.842 40.0358 102.39 41.7155 101.485 43.2074C100.581 44.6874 99.2183 45.8562 97.3976 46.7137C95.5769 47.5712 93.2863 48 90.5258 48H75.9188ZM82.4558 42.5378H89.4862C91.859 42.5378 93.5682 42.0855 94.6136 41.1811C95.6708 40.2648 96.1994 39.0901 96.1994 37.657C96.1994 36.5881 95.9351 35.6249 95.4065 34.7674C94.8779 33.8981 94.1262 33.2168 93.1512 32.7234C92.1762 32.2183 91.0133 31.9658 89.6624 31.9658H82.4558V42.5378ZM82.4558 27.2612H88.9224C90.0501 27.2612 91.0661 27.0557 91.9706 26.6445C92.8751 26.2217 93.5858 25.6284 94.1027 24.8649C94.6313 24.0896 94.8956 23.1734 94.8956 22.1162C94.8956 20.7183 94.4022 19.5672 93.4155 18.6627C92.4405 17.7582 90.9898 17.3059 89.0633 17.3059H82.4558V27.2612ZM113.163 48H106.186L118.89 11.9142H126.96L139.681 48H132.704L123.066 19.3146H122.784L113.163 48ZM113.392 33.8511H132.422V39.1019H113.392V33.8511ZM144.434 48V11.9142H157.966C160.739 11.9142 163.064 12.3958 164.944 13.359C166.835 14.3223 168.262 15.6731 169.226 17.4116C170.201 19.1384 170.688 21.153 170.688 23.4553C170.688 25.7694 170.195 27.7781 169.208 29.4814C168.233 31.1729 166.794 32.4826 164.891 33.4106C162.988 34.3269 160.651 34.785 157.878 34.785H148.24V29.358H156.997C158.618 29.358 159.946 29.1348 160.979 28.6885C162.013 28.2303 162.777 27.5666 163.27 26.6974C163.775 25.8164 164.028 24.7357 164.028 23.4553C164.028 22.1749 163.775 21.0825 163.27 20.178C162.765 19.2617 161.996 18.5687 160.962 18.0988C159.928 17.6172 158.595 17.3764 156.962 17.3764H150.971V48H144.434ZM163.076 31.6486L172.01 48H164.715L155.94 31.6486H163.076ZM176.705 48V11.9142H183.242V28.4946H183.683L197.761 11.9142H205.743L191.788 28.107L205.866 48H198.008L187.242 32.5296L183.242 37.2518V48H176.705ZM229.702 21.8343C229.537 20.2955 228.844 19.0973 227.623 18.2398C226.413 17.3823 224.839 16.9535 222.901 16.9535C221.538 16.9535 220.369 17.1591 219.394 17.5702C218.419 17.9814 217.673 18.5393 217.156 19.2441C216.64 19.9489 216.375 20.7536 216.364 21.6581C216.364 22.4099 216.534 23.0618 216.875 23.6139C217.227 24.166 217.703 24.6359 218.302 25.0235C218.901 25.3994 219.565 25.7165 220.293 25.975C221.021 26.2334 221.755 26.4507 222.495 26.6269L225.878 27.4727C227.241 27.7898 228.551 28.2186 229.808 28.7589C231.076 29.2993 232.21 29.9806 233.208 30.8029C234.219 31.6251 235.017 32.6177 235.605 33.7806C236.192 34.9436 236.486 36.3062 236.486 37.8685C236.486 39.9829 235.945 41.8447 234.865 43.454C233.784 45.0516 232.222 46.3026 230.178 47.2071C228.146 48.0998 225.685 48.5462 222.795 48.5462C219.987 48.5462 217.55 48.1116 215.483 47.2423C213.427 46.3731 211.818 45.1044 210.655 43.4364C209.504 41.7684 208.881 39.7362 208.787 37.3399H215.218C215.312 38.5968 215.7 39.6422 216.381 40.4763C217.063 41.3103 217.949 41.9328 219.042 42.344C220.146 42.7551 221.379 42.9607 222.742 42.9607C224.163 42.9607 225.409 42.7492 226.477 42.3264C227.558 41.8917 228.404 41.2926 229.015 40.5291C229.626 39.7538 229.937 38.8493 229.949 37.8156C229.937 36.8759 229.661 36.1006 229.12 35.4898C228.58 34.8672 227.822 34.3504 226.848 33.9392C225.884 33.5163 224.757 33.1404 223.464 32.8115L219.359 31.7543C216.387 30.9908 214.038 29.8338 212.311 28.2832C210.596 26.7209 209.738 24.6476 209.738 22.0633C209.738 19.9372 210.314 18.0753 211.465 16.4778C212.628 14.8802 214.208 13.641 216.205 12.76C218.202 11.8672 220.463 11.4208 222.989 11.4208C225.549 11.4208 227.793 11.8672 229.72 12.76C231.658 13.641 233.179 14.8685 234.283 16.4425C235.387 18.0049 235.957 19.8021 235.992 21.8343H229.702ZM242.313 48V11.9142H255.846C258.618 11.9142 260.944 12.4311 262.823 13.4648C264.714 14.4985 266.142 15.9198 267.105 17.7288C268.08 19.526 268.567 21.57 268.567 23.8606C268.567 26.1747 268.08 28.2303 267.105 30.0276C266.13 31.8248 264.691 33.2403 262.788 34.274C260.885 35.296 258.541 35.8069 255.758 35.8069H246.789V30.4328H254.877C256.498 30.4328 257.825 30.1509 258.859 29.5871C259.892 29.0232 260.656 28.248 261.149 27.2612C261.654 26.2745 261.907 25.141 261.907 23.8606C261.907 22.5802 261.654 21.4525 261.149 20.4775C260.656 19.5026 259.886 18.7449 258.841 18.2045C257.807 17.6525 256.474 17.3764 254.841 17.3764H248.85V48H242.313ZM274.858 48H267.88L280.584 11.9142H288.654L301.376 48H294.398L284.76 19.3146H284.478L274.858 48ZM275.087 33.8511H294.116V39.1019H275.087V33.8511ZM335.321 24.0896H328.731C328.543 23.0089 328.196 22.0516 327.691 21.2176C327.186 20.3718 326.558 19.6553 325.806 19.0679C325.054 18.4806 324.197 18.0401 323.233 17.7464C322.282 17.441 321.254 17.2883 320.15 17.2883C318.188 17.2883 316.45 17.7817 314.934 18.7684C313.419 19.7434 312.233 21.1765 311.375 23.0677C310.518 24.9471 310.089 27.2436 310.089 29.9571C310.089 32.7176 310.518 35.0434 311.375 36.9346C312.244 38.8141 313.431 40.2354 314.934 41.1987C316.45 42.1502 318.182 42.6259 320.132 42.6259C321.213 42.6259 322.223 42.4849 323.163 42.203C324.114 41.9093 324.966 41.4806 325.718 40.9168C326.481 40.3529 327.122 39.6599 327.638 38.8376C328.167 38.0153 328.531 37.0756 328.731 36.0184L335.321 36.0536C335.074 37.7686 334.54 39.3779 333.717 40.8815C332.907 42.3851 331.844 43.7125 330.528 44.8636C329.212 46.0031 327.674 46.8958 325.912 47.5419C324.15 48.1762 322.194 48.4934 320.044 48.4934C316.873 48.4934 314.042 47.7592 311.551 46.2909C309.061 44.8225 307.099 42.7022 305.666 39.93C304.233 37.1578 303.517 33.8335 303.517 29.9571C303.517 26.0689 304.239 22.7446 305.684 19.9842C307.129 17.212 309.096 15.0917 311.587 13.6233C314.077 12.155 316.896 11.4208 320.044 11.4208C322.053 11.4208 323.921 11.7028 325.647 12.2666C327.374 12.8304 328.913 13.6586 330.264 14.751C331.615 15.8317 332.725 17.1591 333.594 18.7331C334.475 20.2955 335.051 22.081 335.321 24.0896ZM341.307 48V11.9142H364.777V17.394H347.844V27.1908H363.561V32.6706H347.844V42.5202H364.918V48H341.307Z" fill="#00A8D1"/>
</svg>
