<svg width="63" height="63" viewBox="0 0 63 63" fill="none" xmlns="http://www.w3.org/2000/svg">
<circle cx="31.6812" cy="31.0112" r="31.0112" fill="white"/>
<path d="M45.9939 46.5171C45.9939 45.4207 45.6237 44.335 44.9044 43.3221C44.1851 42.3091 43.1309 41.3887 41.8018 40.6134C40.4727 39.8381 38.8949 39.2231 37.1583 38.8035C35.4218 38.3839 33.5606 38.168 31.681 38.168C29.8014 38.168 27.9403 38.3839 26.2037 38.8035C24.4672 39.2231 22.8894 39.8381 21.5603 40.6134C20.2312 41.3887 19.177 42.3091 18.4577 43.3221C17.7384 44.335 17.3682 45.4207 17.3682 46.5171L31.681 46.5171H45.9939Z" fill="#00A8D1"/>
<circle cx="16.1754" cy="27.4324" r="5.9637" fill="#00A8D1"/>
<circle cx="30.4884" cy="17.8914" r="5.9637" fill="#00A8D1"/>
<circle cx="44.8011" cy="27.4324" r="5.9637" fill="#00A8D1"/>
</svg>
